<?xml version="1.0" encoding="UTF-8" standalone="no"?>
<!-- Created with Inkscape (http://www.inkscape.org/) -->

<svg
   width="418.19171mm"
   height="82.526672mm"
   viewBox="0 0 418.19172 82.526672"
   version="1.1"
   id="svg1"
   sodipodi:docname="manifests-fyi-logotype.svg"
   xmlns:inkscape="http://www.inkscape.org/namespaces/inkscape"
   xmlns:sodipodi="http://sodipodi.sourceforge.net/DTD/sodipodi-0.dtd"
   xmlns="http://www.w3.org/2000/svg"
   xmlns:svg="http://www.w3.org/2000/svg">
  <sodipodi:namedview
     id="namedview1"
     pagecolor="#ffffff"
     bordercolor="#000000"
     borderopacity="0.25"
     inkscape:showpageshadow="2"
     inkscape:pageopacity="0.0"
     inkscape:pagecheckerboard="0"
     inkscape:deskcolor="#d1d1d1"
     inkscape:document-units="mm" />
  <defs
     id="defs1">
    <rect
       x="359.75601"
       y="381.64905"
       width="91.122414"
       height="108.28183"
       id="rect7" />
    <rect
       x="217.67149"
       y="241.10178"
       width="63.38728"
       height="44.036377"
       id="rect6" />
    <rect
       x="219.07838"
       y="308.12985"
       width="120.41175"
       height="93.045448"
       id="rect5" />
    <rect
       x="476.34598"
       y="257.99609"
       width="615.99524"
       height="243.20274"
       id="rect2" />
    <clipPath
       clipPathUnits="userSpaceOnUse"
       id="clipPath1">
      <path
         id="path3"
         style="display:inline;fill:#ffffff;fill-opacity:1;stroke:#000000;stroke-width:1;stroke-dasharray:none;stroke-opacity:1"
         d="m 59.112155,62.057193 c -1.993275,0 -3.59823,1.604957 -3.59823,3.59823 v 39.809457 c 0,1.99328 1.604955,3.59823 3.59823,3.59823 h 29.126387 c 1.993275,0 3.59823,-1.60495 3.59823,-3.59823 V 76.930705 L 76.963262,62.057193 Z" />
    </clipPath>
  </defs>
  <g
     id="layer1"
     transform="translate(-32.307507,-46.848424)">
    <path
       style="font-weight:bold;font-size:96px;font-family:'Ubuntu Nerd Font';-inkscape-font-specification:'Ubuntu Nerd Font Bold';white-space:pre;fill:#ffffff;stroke:#ffffff;stroke-width:6e-08"
       d="m 510.8097,322.25126 q 0,-6.912 -1.824,-9.792 -1.728,-2.88 -6.048,-2.88 -1.344,0 -2.784,0.192 -1.44,0.096 -2.784,0.288 v 38.976 h -14.304 v -48.768 q 1.824,-0.48 4.224,-0.96 2.496,-0.576 5.184,-0.96 2.784,-0.48 5.664,-0.672 2.88,-0.288 5.664,-0.288 5.472,0 8.832,1.44 3.456,1.344 5.664,3.264 3.072,-2.208 7.008,-3.456 4.032,-1.248 7.392,-1.248 6.048,0 9.888,1.728 3.936,1.632 6.24,4.704 2.304,3.072 3.168,7.296 0.864,4.224 0.864,9.408 v 28.512 h -14.304 v -26.784 q 0,-6.912 -1.824,-9.792 -1.728,-2.88 -6.048,-2.88 -1.152,0 -3.264,0.576 -2.016,0.576 -3.36,1.44 0.672,2.208 0.864,4.704 0.192,2.4 0.192,5.184 v 27.552 h -14.304 z m 74.30396,16.8 q 2.112,0 4.032,-0.096 1.92,-0.096 3.072,-0.288 v -10.848 q -0.864,-0.192 -2.592,-0.384 -1.728,-0.192 -3.168,-0.192 -2.016,0 -3.84,0.288 -1.728,0.192 -3.072,0.864 -1.344,0.672 -2.112,1.824 -0.768,1.152 -0.768,2.88 0,3.36 2.208,4.704 2.304,1.248 6.24,1.248 z m -1.152,-41.856 q 6.336,0 10.56,1.44 4.224,1.44 6.72,4.128 2.592,2.688 3.648,6.528 1.056,3.84 1.056,8.544 v 29.76 q -3.072,0.672 -8.544,1.536 -5.472,0.96 -13.248,0.96 -4.896,0 -8.928,-0.864 -3.936,-0.864 -6.816,-2.784 -2.88,-2.016 -4.416,-5.184 -1.536,-3.168 -1.536,-7.776 0,-4.416 1.728,-7.488 1.824,-3.072 4.8,-4.896 2.976,-1.824 6.816,-2.592 3.84,-0.864 7.968,-0.864 2.784,0 4.896,0.288 2.208,0.192 3.552,0.576 v -1.344 q 0,-3.648 -2.208,-5.856 -2.208,-2.208 -7.68,-2.208 -3.648,0 -7.2,0.576 -3.552,0.48 -6.144,1.44 l -1.824,-11.52 q 1.248,-0.384 3.072,-0.768 1.92,-0.48 4.128,-0.768 2.208,-0.384 4.608,-0.576 2.496,-0.288 4.992,-0.288 z m 34.94395,3.072 q 3.648,-1.056 9.408,-1.92 5.76,-0.96 12.096,-0.96 6.432,0 10.656,1.728 4.32,1.632 6.816,4.704 2.496,3.072 3.552,7.296 1.056,4.224 1.056,9.408 v 28.512 h -14.304 v -26.784 q 0,-6.912 -1.824,-9.792 -1.824,-2.88 -6.816,-2.88 -1.536,0 -3.264,0.192 -1.728,0.096 -3.072,0.288 v 38.976 h -14.304 z m 70.84807,48.768 h -14.304 v -50.496 h 14.304 z m 1.344,-65.088 q 0,3.936 -2.592,6.24 -2.496,2.208 -5.952,2.208 -3.456,0 -6.048,-2.208 -2.496,-2.304 -2.496,-6.24 0,-3.936 2.496,-6.144 2.592,-2.304 6.048,-2.304 3.456,0 5.952,2.304 2.592,2.208 2.592,6.144 z m 33.98395,-9.408 q 4.032,0 7.392,0.864 3.36,0.768 5.184,1.536 l -2.784,11.424 q -1.92,-0.864 -4.224,-1.248 -2.208,-0.48 -4.128,-0.48 -2.592,0 -4.416,0.768 -1.728,0.672 -2.784,1.92 -0.96,1.248 -1.44,2.976 -0.384,1.728 -0.384,3.744 v 2.496 h 17.664 v 11.904 h -17.664 v 38.592 h -14.304 v -53.184 q 0,-9.792 5.472,-15.552 5.568,-5.76 16.416,-5.76 z m 15.45614,49.632 q 0,-6.72 2.016,-11.712 2.112,-5.088 5.472,-8.448 3.36,-3.36 7.68,-5.088 4.416,-1.728 9.024,-1.728 10.752,0 16.992,6.624 6.24,6.528 6.24,19.296 0,1.248 -0.096,2.784 -0.096,1.44 -0.192,2.592 h -32.448 q 0.48,4.416 4.128,7.008 3.648,2.592 9.792,2.592 3.936,0 7.68,-0.672 3.84,-0.768 6.24,-1.824 l 1.92,11.616 q -1.152,0.576 -3.072,1.152 -1.92,0.576 -4.32,0.96 -2.304,0.48 -4.992,0.768 -2.688,0.288 -5.376,0.288 -6.816,0 -11.904,-2.016 -4.992,-2.016 -8.352,-5.472 -3.264,-3.552 -4.896,-8.352 -1.536,-4.8 -1.536,-10.368 z m 33.6,-5.472 q -0.096,-1.824 -0.672,-3.552 -0.48,-1.728 -1.632,-3.072 -1.056,-1.344 -2.784,-2.208 -1.632,-0.864 -4.128,-0.864 -2.4,0 -4.128,0.864 -1.728,0.768 -2.88,2.112 -1.152,1.344 -1.824,3.168 -0.576,1.728 -0.864,3.552 z m 39.35997,20.064 q 3.936,0 5.568,-0.768 1.632,-0.768 1.632,-2.976 0,-1.728 -2.112,-2.976 -2.112,-1.344 -6.432,-2.976 -3.36,-1.248 -6.144,-2.592 -2.688,-1.344 -4.608,-3.168 -1.92,-1.92 -2.976,-4.512 -1.056,-2.592 -1.056,-6.24 0,-7.104 5.28,-11.232 5.28,-4.128 14.496,-4.128 4.608,0 8.832,0.864 4.224,0.768 6.72,1.728 l -2.496,11.136 q -2.496,-0.864 -5.472,-1.536 -2.88,-0.672 -6.528,-0.672 -6.72,0 -6.72,3.744 0,0.864 0.288,1.536 0.288,0.672 1.152,1.344 0.864,0.576 2.304,1.344 1.536,0.672 3.84,1.536 4.704,1.728 7.776,3.456 3.072,1.632 4.8,3.648 1.824,1.92 2.496,4.32 0.768,2.4 0.768,5.568 0,7.488 -5.664,11.328 -5.568,3.84 -15.84,3.84 -6.72,0 -11.232,-1.152 -4.416,-1.152 -6.144,-1.92 l 2.4,-11.616 q 3.648,1.44 7.488,2.304 3.84,0.768 7.584,0.768 z m 31.58406,-52.8 14.304,-2.304 v 14.88 h 17.184 v 11.904 h -17.184 v 17.76 q 0,4.512 1.536,7.2 1.632,2.688 6.432,2.688 2.304,0 4.704,-0.384 2.496,-0.48 4.512,-1.248 l 2.016,11.136 q -2.592,1.056 -5.76,1.824 -3.168,0.768 -7.776,0.768 -5.856,0 -9.696,-1.536 -3.84,-1.632 -6.144,-4.416 -2.304,-2.88 -3.264,-6.912 -0.864,-4.032 -0.864,-8.928 z m 57.60002,52.8 q 3.936,0 5.568,-0.768 1.632,-0.768 1.632,-2.976 0,-1.728 -2.112,-2.976 -2.112,-1.344 -6.432,-2.976 -3.36,-1.248 -6.144,-2.592 -2.688,-1.344 -4.608,-3.168 -1.92,-1.92 -2.976,-4.512 -1.056,-2.592 -1.056,-6.24 0,-7.104 5.28,-11.232 5.28,-4.128 14.496,-4.128 4.608,0 8.832,0.864 4.224,0.768 6.72,1.728 l -2.496,11.136 q -2.496,-0.864 -5.472,-1.536 -2.88,-0.672 -6.528,-0.672 -6.72,0 -6.72,3.744 0,0.864 0.288,1.536 0.288,0.672 1.152,1.344 0.864,0.576 2.304,1.344 1.536,0.672 3.84,1.536 4.704,1.728 7.776,3.456 3.072,1.632 4.8,3.648 1.824,1.92 2.496,4.32 0.768,2.4 0.768,5.568 0,7.488 -5.664,11.328 -5.568,3.84 -15.84,3.84 -6.72,0 -11.232,-1.152 -4.416,-1.152 -6.144,-1.92 l 2.4,-11.616 q 3.648,1.44 7.488,2.304 3.84,0.768 7.584,0.768 z m 46.08006,2.688 q 0,4.32 -2.784,6.624 -2.688,2.208 -6.144,2.208 -3.456,0 -6.24,-2.208 -2.688,-2.304 -2.688,-6.624 0,-4.32 2.688,-6.528 2.784,-2.304 6.24,-2.304 3.456,0 6.144,2.304 2.784,2.208 2.784,6.528 z m 31.48803,-66.912 q 4.032,0 7.392,0.864 3.36,0.768 5.184,1.536 l -2.784,11.424 q -1.92,-0.864 -4.224,-1.248 -2.208,-0.48 -4.128,-0.48 -2.592,0 -4.416,0.768 -1.728,0.672 -2.784,1.92 -0.96,1.248 -1.44,2.976 -0.384,1.728 -0.384,3.744 v 2.496 h 17.664 v 11.904 h -17.664 v 38.592 h -14.304 v -53.184 q 0,-9.792 5.472,-15.552 5.568,-5.76 16.416,-5.76 z m 66.04809,24 q -4.32,14.592 -9.024,27.36 -4.704,12.768 -10.272,24.768 -2.016,4.32 -4.032,7.296 -2.016,3.072 -4.416,4.992 -2.4,2.016 -5.472,2.88 -2.976,0.96 -7.008,0.96 -3.36,0 -6.23997,-0.672 -2.784,-0.576 -4.608,-1.344 l 2.496,-11.424 q 2.208,0.768 3.93597,1.056 1.728,0.288 3.648,0.288 3.84,0 5.856,-2.112 2.112,-2.016 3.552,-5.664 -4.896,-9.6 -9.792,-21.504 -4.896,-12 -9.21597,-26.88 h 15.16797 q 0.96,3.744 2.208,8.16 1.344,4.32 2.784,8.832 1.44,4.416 2.88,8.64 1.536,4.224 2.88,7.68 1.248,-3.456 2.592,-7.68 1.344,-4.224 2.592,-8.64 1.344,-4.512 2.496,-8.832 1.248,-4.416 2.208,-8.16 z m 21.9841,50.496 h -14.304 v -50.496 h 14.304 z m 1.344,-65.088 q 0,3.936 -2.592,6.24 -2.496,2.208 -5.952,2.208 -3.456,0 -6.048,-2.208 -2.496,-2.304 -2.496,-6.24 0,-3.936 2.496,-6.144 2.592,-2.304 6.048,-2.304 3.456,0 5.952,2.304 2.592,2.208 2.592,6.144 z"
       id="text2"
       transform="matrix(0.52739749,0,0,0.52739749,-113.61889,-79.369516)"
       aria-label="manifests.fyi" />
  </g>
  <g
     id="layer2"
     transform="translate(-32.307507,-46.848424)">
    <path
       style="fill:#326ce5;fill-opacity:1;stroke:#ffffff;stroke-width:2;stroke-dasharray:none;stroke-opacity:1"
       id="path2"
       d="m 29.590408,81.785736 c -3.591906,0 -30.12243081,-12.776427 -32.361947,-15.584691 C -5.0110553,63.392781 -11.563555,34.684409 -10.764281,31.18256 -9.9650067,27.680712 8.3946857,4.6583848 11.63088,3.0999155 c 3.236195,-1.5584693 32.682856,-1.5584701 35.919051,-10e-7 3.236194,1.5584691 21.595888,24.5807955 22.395162,28.0826435 0.799274,3.501849 -5.753224,32.210221 -7.99274,35.018485 -2.239516,2.808265 -28.77004,15.584693 -32.361945,15.584693 z"
       transform="matrix(1,0,0,-1,44.150764,129.63416)" />
    <g
       id="g6"
       transform="matrix(1.101096,0,0,1.101096,-7.4403468,-7.0059598)"
       style="stroke-width:1.81637;stroke-dasharray:none">
      <path
         id="rect3"
         style="display:inline;fill:#ffffff;fill-opacity:1;stroke:#000000;stroke-width:1.81637;stroke-dasharray:none;stroke-opacity:1"
         d="m 59.112154,62.057194 c -1.993275,0 -3.59823,1.604955 -3.59823,3.59823 v 39.809456 c 0,1.99328 1.604955,3.59823 3.59823,3.59823 h 29.126388 c 1.993275,0 3.59823,-1.60495 3.59823,-3.59823 V 76.930705 L 76.963261,62.057194 Z" />
      <path
         style="fill:#ffffff;fill-opacity:1;stroke:#000000;stroke-width:1.81637;stroke-dasharray:none;stroke-opacity:1;paint-order:normal"
         d="m 76.963261,62.0572 v 10.860793 a 4.0819082,4.0819082 45 0 0 4.081908,4.081908 h 10.791602 z"
         id="path20"
         clip-path="url(#clipPath1)" />
      <path
         style="font-weight:bold;font-size:74.6667px;font-family:'UbuntuMono Nerd Font Mono';-inkscape-font-specification:'UbuntuMono Nerd Font Mono Bold';white-space:pre;stroke-width:4.58069"
         d="m 233.0408,359.57426 q 4.032,0.74667 5.74933,3.28534 1.79201,2.53867 1.79201,7.31734 v 8.43733 q 0,3.136 0.896,4.55467 0.896,1.41867 3.28533,1.41867 h 6.944 v 7.168 h -7.76533 q -6.72001,0 -9.33334,-2.912 -2.53867,-2.912 -2.53867,-8.43734 v -10.976 q 0,-3.136 -0.97067,-4.704 -0.97066,-1.64267 -3.28533,-1.64267 h -4.032 v -7.168 h 4.032 q 2.31467,0 3.28533,-1.56801 0.97067,-1.64266 0.97067,-4.704 v -11.05067 q 0,-5.52534 2.53867,-8.43734 2.61333,-2.912 9.33334,-2.912 h 7.76533 v 7.16801 h -6.944 q -2.38933,0 -3.28533,1.41866 -0.896,1.344 -0.896,4.55467 v 8.43734 q 0,4.77867 -1.79201,7.31734 -1.71733,2.53866 -5.74933,3.43466 z m 46.74135,-0.14933 q -4.032,-0.74667 -5.824,-3.28533 -1.792,-2.53867 -1.792,-7.31734 v -8.43734 q 0,-3.136 -0.896,-4.55467 -0.896,-1.41866 -3.28534,-1.41866 h -6.86933 v -7.16801 h 7.69067 q 3.36,0 5.6,0.74667 2.31467,0.74667 3.65867,2.16533 1.41867,1.41867 2.016,3.58401 0.59733,2.09066 0.59733,4.85333 v 10.97601 q 0,3.136 0.97067,4.77866 0.97067,1.56801 3.28534,1.56801 h 4.10667 v 7.168 h -4.10667 q -2.31467,0 -3.28534,1.64267 -0.97067,1.568 -0.97067,4.62933 v 11.05067 q 0,2.76267 -0.59733,4.85334 -0.59733,2.16533 -2.016,3.584 -1.344,1.41867 -3.65867,2.16534 -2.24,0.74666 -5.6,0.74666 h -7.69067 v -7.168 h 6.86933 q 2.38934,0 3.28534,-1.41867 0.896,-1.344 0.896,-4.55467 v -8.43733 q 0,-4.77867 1.792,-7.31734 1.792,-2.53867 5.824,-3.43467 z"
         id="text5"
         transform="matrix(0.39652773,0,0,0.39652773,-27.961247,-49.753275)"
         aria-label="{}" />
      <path
         style="font-weight:bold;font-size:24px;font-family:'UbuntuMono Nerd Font Mono';-inkscape-font-specification:'UbuntuMono Nerd Font Mono Bold';white-space:pre;stroke-width:6.86503"
         d="m 225.83187,269.76556 q 0,1.056 -0.648,1.608 -0.648,0.552 -1.488,0.552 -0.43199,0 -0.816,-0.144 -0.384,-0.144 -0.696,-0.408 -0.288,-0.288 -0.48,-0.672 -0.168,-0.408 -0.168,-0.936 0,-0.504 0.168,-0.888 0.192,-0.408 0.48,-0.672 0.312,-0.264 0.696,-0.408 0.38401,-0.144 0.816,-0.144 0.84,0 1.488,0.552 0.648,0.552 0.648,1.56 z m 15.168,-9.384 q -0.45599,1.584 -0.888,3.12 -0.408,1.512 -0.864,2.976 -0.456,1.44 -0.984,2.832 -0.504,1.392 -1.104,2.712 -0.456,0.96 -0.912,1.656 -0.432,0.696 -0.98399,1.128 -0.52801,0.456 -1.20001,0.672 -0.648,0.216 -1.536,0.216 -0.744,0 -1.368,-0.12 -0.6,-0.12 -1.008,-0.312 l 0.552,-2.472 q 0.48,0.216 0.84001,0.288 0.38399,0.096 0.81599,0.096 0.864,0 1.392,-0.576 0.528,-0.576 0.84,-1.368 -1.056,-2.112 -2.112,-4.824 -1.056,-2.736 -1.92,-6.024 h 3.072 q 0.216,0.888 0.48,1.896 0.288,1.008 0.6,2.016 0.312,1.008 0.648,1.992 0.36,0.96 0.72,1.8 0.24,-0.84 0.504,-1.8 0.264,-0.984 0.504,-1.968 0.24,-1.008 0.45601,-2.016 0.23999,-1.008 0.43199,-1.92 z m 6.696,9.168 q 0.48,0 0.936,0 0.456,-0.024 0.792,-0.072 v -2.592 q -0.288,-0.048 -0.696,-0.072 -0.408,-0.048 -0.744,-0.048 -0.456,0 -0.888,0.072 -0.432,0.048 -0.768,0.192 -0.312,0.144 -0.504,0.408 -0.192,0.264 -0.192,0.696 0,0.768 0.576,1.104 0.576,0.312 1.488,0.312 z m -0.264,-9.456 q 1.392,0 2.304,0.336 0.936,0.312 1.488,0.912 0.552,0.576 0.792,1.44 0.24,0.84 0.24,1.896 v 6.72 q -0.648,0.144 -1.92,0.336 -1.272,0.192 -2.856,0.192 -1.08,0 -1.968,-0.192 -0.864,-0.192 -1.488,-0.624 -0.624,-0.456 -0.96,-1.152 -0.336,-0.72 -0.336,-1.752 0,-0.984 0.384,-1.656 0.384,-0.672 1.032,-1.08 0.648,-0.408 1.488,-0.576 0.84,-0.192 1.752,-0.192 1.152,0 2.04,0.192 v -0.36 q 0,-0.84 -0.528,-1.392 -0.528,-0.576 -1.824,-0.576 -0.84,0 -1.632,0.12 -0.768,0.12 -1.248,0.288 l -0.408,-2.376 q 0.552,-0.192 1.56,-0.336 1.008,-0.168 2.088,-0.168 z m 14.47201,0.168 q 0.93599,0 1.536,0.288 0.59999,0.288 0.93599,0.864 0.36001,0.576 0.48001,1.464 0.11999,0.864 0.11999,2.04 v 6.744 h -2.4 v -6.888 q 0,-0.672 -0.096,-1.08 -0.072,-0.408 -0.216,-0.624 -0.12,-0.216 -0.312,-0.288 -0.16799,-0.072 -0.35999,-0.072 -0.21601,0 -0.45601,0.048 -0.24,0.024 -0.432,0.12 0.072,0.456 0.12,1.008 0.048,0.552 0.048,1.224 v 2.256 h -2.4 v -2.592 q 0,-1.152 -0.24,-1.608 -0.216,-0.456 -0.72,-0.456 -0.14399,0 -0.35999,0.024 -0.19201,0.024 -0.38401,0.072 v 8.856 h -2.4 v -10.848 q 0.936,-0.264 1.848,-0.408 0.91201,-0.144 1.608,-0.144 0.624,0 1.104,0.168 0.504,0.144 0.864,0.504 0.40801,-0.264 0.96,-0.456 0.552,-0.216 1.15201,-0.216 z m 14.976,10.92 q -0.072,0.048 -0.336,0.168 -0.24001,0.12 -0.64801,0.264 -0.408,0.12 -1.008,0.216 -0.576,0.096 -1.31999,0.096 -2.04001,0 -2.976,-1.2 -0.93601,-1.224 -0.93601,-3.552 v -9.576 h -3.12 v -2.448 h 6.072 v 12.24 q 0,1.152 0.456,1.56 0.45601,0.408 1.152,0.408 0.88801,0 1.488,-0.24 0.6,-0.24 0.792,-0.312 z"
         id="text6"
         transform="matrix(0.26458333,0,0,0.26458333,0.60885609,-0.58118077)"
         aria-label=".yaml" />
    </g>
    <circle
       style="fill:#86d688;fill-opacity:1;stroke:#000000;stroke-width:2;stroke-dasharray:none;stroke-opacity:1"
       id="path6"
       cx="105.1267"
       cy="111.38888"
       r="16.986219" />
    <path
       style="font-weight:bold;font-size:74.6667px;font-family:'Ubuntu Nerd Font';-inkscape-font-specification:'Ubuntu Nerd Font Bold';white-space:pre;stroke-width:7.55906"
       d="m 376.10787,452.95514 h -11.12534 v -39.27469 h 11.12534 z m 1.04533,-50.62403 q 0,3.06134 -2.016,4.85334 -1.94133,1.71733 -4.62934,1.71733 -2.688,0 -4.704,-1.71733 -1.94133,-1.792 -1.94133,-4.85334 0,-3.06133 1.94133,-4.77866 2.016,-1.79201 4.704,-1.79201 2.68801,0 4.62934,1.79201 2.016,1.71733 2.016,4.77866 z"
       id="text7"
       transform="matrix(0.4003421,0,0,0.4003421,-43.255835,-58.003367)"
       aria-label="i" />
  </g>
</svg>
